<svg xmlns="http://www.w3.org/2000/svg" xmlns:xlink="http://www.w3.org/1999/xlink" width="500" zoomAndPan="magnify" viewBox="0 0 375 374.999991" height="500" preserveAspectRatio="xMidYMid meet" version="1.0"><defs><clipPath id="760b6eecc9"><path d="M 267.625 151.390625 L 337.5 151.390625 L 337.5 221.179688 L 267.625 221.179688 Z M 267.625 151.390625 " clip-rule="nonzero"/></clipPath><clipPath id="9c0a2c2b10"><path d="M 145 215.214844 L 264 215.214844 L 264 334.3125 L 145 334.3125 Z M 145 215.214844 " clip-rule="nonzero"/></clipPath></defs><g clip-path="url(#760b6eecc9)"><path fill="#38b6ff" d="M 337.503906 186.242188 C 337.503906 205.460938 321.941406 221.042969 302.746094 221.042969 C 283.550781 221.042969 267.992188 205.460938 267.992188 186.242188 C 267.992188 167.023438 283.550781 151.4375 302.746094 151.4375 C 321.941406 151.4375 337.503906 167.023438 337.503906 186.242188 " fill-opacity="1" fill-rule="nonzero"/></g><path fill="#38b6ff" d="M 296.949219 81.46875 C 296.949219 95.03125 285.964844 106.027344 272.417969 106.027344 C 258.875 106.027344 247.890625 95.03125 247.890625 81.46875 C 247.890625 67.90625 258.875 56.910156 272.417969 56.910156 C 285.964844 56.910156 296.949219 67.90625 296.949219 81.46875 " fill-opacity="1" fill-rule="nonzero"/><g clip-path="url(#9c0a2c2b10)"><path fill="#1b4a9b" d="M 263.890625 274.945312 C 263.890625 307.734375 237.347656 334.3125 204.601562 334.3125 C 171.855469 334.3125 145.3125 307.734375 145.3125 274.945312 C 145.3125 242.160156 171.855469 215.582031 204.601562 215.582031 C 237.347656 215.582031 263.890625 242.160156 263.890625 274.945312 " fill-opacity="1" fill-rule="nonzero"/></g><path fill="#1b4a9b" d="M 209.375 180.203125 C 192.1875 180.203125 178.253906 166.253906 178.253906 149.042969 C 178.253906 131.835938 192.1875 117.882812 209.375 117.882812 C 226.5625 117.882812 240.496094 131.835938 240.496094 149.042969 C 240.496094 166.253906 226.5625 180.203125 209.375 180.203125 Z M 209.375 101.679688 C 183.25 101.679688 162.070312 122.886719 162.070312 149.042969 C 162.070312 175.203125 183.25 196.410156 209.375 196.410156 C 235.5 196.410156 256.679688 175.203125 256.679688 149.042969 C 256.679688 122.886719 235.5 101.679688 209.375 101.679688 " fill-opacity="1" fill-rule="nonzero"/><path fill="#1b4a9b" d="M 151.304688 52.792969 C 192.898438 41.132812 238.710938 54.71875 269.054688 85.011719 C 299.335938 115.242188 313.46875 158.625 309.996094 200.96875 C 307.871094 226.851562 299.53125 252.003906 286.578125 274.449219 C 285.476562 276.351562 288.421875 278.074219 289.519531 276.171875 C 312.640625 236.113281 321.035156 187.070312 307.171875 142.40625 C 294.421875 101.332031 264.082031 66.566406 223.109375 52.257812 C 199.804688 44.121094 174.21875 42.828125 150.394531 49.503906 C 148.289062 50.097656 149.183594 53.386719 151.304688 52.792969 " fill-opacity="1" fill-rule="nonzero"/><path fill="#1b4a9b" d="M 50.054688 143.871094 C 37.472656 180.25 42.148438 221.683594 61.414062 254.878906 C 80.808594 288.289062 114.992188 310.722656 152.882812 317.113281 C 174.019531 320.675781 195.847656 319.324219 216.230469 312.574219 C 218.300781 311.886719 217.414062 308.589844 215.324219 309.28125 C 180.066406 320.960938 140.335938 316.15625 108.378906 297.390625 C 75.660156 278.175781 54.105469 244.570312 48.089844 207.277344 C 44.714844 186.382812 46.421875 164.792969 53.339844 144.78125 C 54.0625 142.699219 50.769531 141.804688 50.054688 143.871094 " fill-opacity="1" fill-rule="nonzero"/><path fill="#1b4a9b" d="M 116.59375 110.125 C 102.53125 127.753906 96.46875 151.125 100.839844 173.339844 C 104.960938 194.28125 118.214844 212.894531 136.328125 224.027344 C 138.203125 225.183594 139.917969 222.230469 138.050781 221.082031 C 120.9375 210.566406 108.503906 193.140625 104.332031 173.441406 C 99.84375 152.25 105.535156 129.417969 119.003906 112.539062 C 120.359375 110.839844 117.960938 108.410156 116.59375 110.125 " fill-opacity="1" fill-rule="nonzero"/></svg>